<svg xmlns="http://www.w3.org/2000/svg" width="16" height="16"><path d="M7.875 12.625l-.125-2 .5-2.625-.375-2.5.625-.875 0-2L8.75 3.375l.125 1.25-.5.875.375 2.5-.5 2.625.125 2" fill="#363119"/><path d="M8.125 6.875l-.75-.5-.375-.5-.125-.125.75.625M8.625 7.75l.5-.5-.375 0-.25.375M8.125 9.375l-.5-.25.125-.125.5.25M9 4.5l-.125.125-.125-.125" fill="#363119"/><path fill="#0F2B0D" d="M8 9.375l-.25-.125-.625 0-.5-.375-.375-.625 0-.25-.25-.25.875.25.625.375.375.75.25.125M8.5 7.875l.375-.5.625-.125.375-.125.25-.25.25-1 .25-.125-.5-.125-.5.125-.5.375-.25.375-.125.625-.25.25M8 6.75l-.375-.25-.375-.125-.375-.375.125-.125.375.375.375.125.375.25m-.875-.25-.125.25-.25.125-.875 0-.5-.25-.125-.375.125.125.25-.125.625-.125.5.125.125.125.125 0m-.25-.25-.375-.125-.375-.25-.125-.625 0-.125-.125-.125 0-.125.25.125.25 0 .375.25.25.375 0 .5M8.75 4.375l.25-.125.125-.25.25-.25.625-.125.5 0-.25.125.125.25 0 .25-.375.25-.75 0-.25 0-.375.125M8.5 2.625l-.375-.125-.5-.5-.125-.625 0-.375.125-.25 0 .25.375-.125.375.25.25.75L8.625 2.5l.375.875M8.625 2.5l.125-.375.375-.375.5-.125.125.125-.125 0 0 .375-.125.125-.375.25-.375.125-.125 0"/><path d="M7.875 12.625l0-2 .25-2.5-.25-2.25.5-1.25.25-1.375-.125-.625.5.75-.25 1.25-.375 1.25.25 2.25-.25 2.5 0 2" fill="#272B10"/><path d="M8.5 2.625l.125.625-.25 1.375-.5 1.25.25 2.25-.25 2.5 0 2 .125 0 0-2 .25-2.375-.25-2.375.5-1.375.25-1.25" fill="#1C260D"/><path d="M7.625 9.125l-.5 0-.375-.375-.375-.5 0-.25 0 0 .375 0 .625.375.375.75-.625-.625-.625-.25.625.375M8.875 7.125l.125-.625.625-.625.5-.125.125 0 0 .25-.25.875-.375.25-.625.125.625-.75.5-.375-.5.25M7.125 6.375l0 .125-.25.125-.875 0-.375-.125-.125-.125.125-.125.5-.125.5 0 .375.125-.375.125-.625-.125.625.25m.25-.625-.375-.125-.25-.125-.125-.125-.125-.75.25.125.125 0 .25.125.25.25.125.625-.375-.5-.375-.25.375.375M9 4.375l.25-.375.375-.25.5 0 .125.25 0 .25-.25.125-.875 0 .5-.375.375 0-.375-.125M8.375 2.5l-.25-.125-.375-.5-.125-.625 0-.125.25-.125.25 0 .125.125.25.625 0 .625-.25-.75-.25-.375-.25 0 .25.125.125.25M8.75 2.5l.125-.375.375-.375.25 0 0 .375-.5.375-.125 0 .25-.375.25 0-.25-.125" fill="#24682A"/><path d="M6.375 8.25l.375.5.375.375.5 0-.5-.125M8.875 7.125l.125-.125 0-.5M9.118 7.109l-.118.141.625-.125.375-.25M5.5 6.375l.125.125.375.125.875 0-1-.125M6.087 5.255l.038.245.125.125.25.125.375.125-.625-.375M9.158 4.136l-.158.239.172-.14M9.255 4.279l-.13.096.875 0M7.697 1.585l.053.29.375.5.25.125-.042-.161-.203-.102M8.807 2.334l.05.022-.107.144M8.942 2.406l-.067.094.125 0 .204-.159-.207.099" fill="#20471C"/><path d="M6.5 8.0625l.25 0 .25.125M6.375 6.1875l.25 0 .125.0625M6.25 4.9375l.125 0 .3125.1875M9.75 5.9375l.375-.125.0625.1875-.125-.0625M9.875 3.8125l.1875 0 .0625.1875M9.3125 1.8125l.125 0 0 .1875-.0625-.125M7.9375 1.0625l.1875 0 .125.1875-.125-.125" fill="#588642"/></svg>