<svg xmlns="http://www.w3.org/2000/svg" width="16" height="32"><g><path d="M7.25 28.375l0-8.75.5-2.125-.125-4.25.5 0 .375 4.25-.375 2.375.375 8.5M9.125 16.625l.75-.125 1-.375.25-.375-.125-.125-.5.5-1 .125" fill="#242B0D"/><path fill="#242B0D" d="M7.5 19l-1.75-1.625-1.375-.75-.125-.125 0-1.25.25 0 0 1 1 .5-.25-1.125.125-.875.25-.125 0 1.25.125.5 1.875 1.875M8.375 16.875l1.25-.875.75-1 .25.125-.75 1-1.375 1"/><path d="M7.25 28.375l.375-15.125.5 0 .375 15.125M9.75 16.125l.25.125.625-.125.75-.75.25.125-.75.875-.875.125-.625-.125" fill="#362A1A"/><path fill="#362A1A" d="M8.125 17.75l2.625-2.625 0-.25-2.5625 2.375M7.875 18.5l-2.125-1.75-.25-2-.25 0 .25 2-.875-.5-.375-1.625-.125 0 .25 1.75.125.375 1 .375 0 .125 2.375 1.875"/><path d="M7.25 28.375l.75 0-.25-5.75 0-9.375-.125 0" fill="#2C1F12"/><path d="M7.621 18.922l-2.121-1.672 0-.125-1-.375-.125-.375-.25-1.75.375 1.875 1 .5.125.25 2 1.5M5.25 14.75l.25 2-.125-2M8.236 17.638l-.01-.302 1.274-1.086.5.125.875-.125.75-.75-.75.875-.875.125-.52-.105M10.75 15.125l-1 1 1-1.25" fill="#2C1F12"/></g><path class="ftreeDark" fill="#2B1B10" d="M7.375 13.125l-1.25 0-1-.5-.25-.5 1.25-.125-1-.875-.375-1.25.5-1 1.125.125.375-.875.25.125.375-1.5.75.125.5.75 1.25-1.75.75 0 .625.375.25 1-.5.625.125.125.625 0 .25.375-.125.625-.375.25.75.375-.125.25-.125.625 0 .5.125.25-.25.25-.625.25.75.375.375.25-.125.5-.5.25-.625 0-.5 0 .625.25-.125.125-.75.125-1.5.125-1.25-.375"/><path class="ftreeDark" fill="#0F2B0D" d="M7.5 13.25l-.375.75-2 1.375-1.625.5-.25 0-.75-.375.25-.375-1 .25-.75-.625.125-.25-1 0-.125-.875.75-.375-.25-.625.625-.125-.875-1.25.125-.875.25-.375.375-.25 1.125.625.125 0 .625-.625.875-.5.625.125"/><path class="ftreeDark" fill="#0F2B0D" d="M9.75 13.625l0 .375.25.875.75.75 1.5.875 1.125-.125.25-.375 0-.375-.125-.125.5-.125.375-.25.375-.625.125-.375-.125-.75-.25-.375.125-.5-.375-.25-.25-1-.625-.625-.5-.25-.375.125-.625.125"/><g><path class="ftreeLight" fill="#24682A" d="M1.25 14.375l-1 0-.25-.625 1-.5-.375-.5.625-.25-.75-1.25 0-.625.5-.75.875.5.5.125.75-.875 1.125-.25.875 1.25.25-.125 1.875 2.125-4 2"/><path class="ftreeShadow2" d="M4.748 10.09l-.373.285-.125.75-.75-.125-.25.125 0 .625-.625.25.25.75.25 1.125L4 14.5 7.25 13l-1.875-2.5-.25.125" fill="#2F5325"/><path class="ftreeShadow" fill="#20471C" d="M0 13.75l.25.625 1 0-.125.5.75.375 1.125-.25-.375.5.625.25 1.125-.125.75-.375 1.875-1.375.5-1-1.25-.875.25.875-1.75.875-2.125.625.125-.625-.75-.125-1.125.375M1.625 13.375l-.25-.875.125-.125.625.75M1.25 11.375l-.375-.625.625.25M2.5 12.25l-.5-.875.875.625M2.875 14l-.25-1.125.75.875M3.75 12.625l-.25-1 .75.875M4 10.875l-.25-1.25.375.125.5.875M5.125 12.375l-.25-.875.75.75"/></g><g><path class="ftreeLight" fill="#24682A" d="M10.375 12.875l.625 1.5 1.375.875 1.125-.75.875 0 .25-1-.25-.5.25-.25-.125-.25-.375-.125-.125-.75-.5-.75-.75-.375-.875.375-1.125.5"/><path class="ftreeShadow2" d="M11.875 11l.125.375.375.375.375.125 0 .5.5.25-.375.5-.125.5.125.5-.5.25 0 .375-.75.25-2.875-3.375" fill="#2F5325"/><path class="ftreeShadow" fill="#20471C" d="M10 12.875l.375.75-.375 0-.125.25.25.75.625.875 1.25.75 1.125.125.375-.125 0-.625-.25-.375.5 0 .5-.125.25-.25.25-.625-.125-.75-.25.625-.375.25-1.125-.125-.25-.125-.125.25-.25.375-1.25-.875-.125-.5.5-.125-.75-.625M11.75 11.5l1-.375-.75.75M11.75 12.375l.875-.125-.625.5M13 12.5l1 0-.75.5M11.875 13.75l1.125-.125-.75.625M11 13.5l.625-.5-.75 0M13.125 13.5l.75 0-.5.375"/></g><g><path class="ftreeLight" fill="#24682A" d="M5.5 11.125l-.625-1 .375-1.125 1.375.25.125-.625.25 0 .5-1.5.75.125.375.75 1-1.75 1.25-.125.5.875-.5 1.125.75 0 .25.375 0 .25-.375.5.5.375-.25.875-.25.5-.75.25.5 1.25-4.25.125"/><path class="ftreeShadow" d="M4.875 10.125l.625 1 1.75.5M5.5 11.125l.75.75-1.25.125.25.5 1.125.5 1.25 0-.5.125.25.125 1.375.125 1.625 0 .625-.125 0-.125-.5-.25 1 .125.625-.125 0-.625-.375-.125-.625-.625.75-.125.125-.375-.25-.5-.25.25-1.375.5.625.5-.5.5-2 .125-1.25-.375.25-.375M5.875 10.625l.375-.75.125.875M7.125 9.25l.125-1.125.375 1.125M8.5 9.875l.375-1.125.375 1.125M9.875 8.75l.375-1.75.125.125.375 1.875M7.75 11.375l.125-1.375.25-.125.125 1.375M9.75 10.5l.25-1 .375.875" fill="#20471C"/></g><path class="ftreeHl" d="M5.25 9.625l.125-.375 1.125.25M7.25 8.25l.375-.875.5.125.125.375-.5-.25M9.875 6.5l.75-.125.375.625-.25.75-.125-1M11.125 8.375l.375-.125.25.375M11.5 9.5l.25.25-.125.375M.25 14l-.125-.25.625-.25M.875 12.875l.25-.25-.125.375M.625 11.25l0-.625.5-.5.5.25-.5 0M3 10.125l.25-.375 1-.25.125.25-1 .125M12.125 10.875l.625-.25 1 .75.125.75-1.125-1.25M14.125 12.5l.25.125 0 .125M14.375 13.25l.125.25-.25-.375" fill="#588642"/><g stroke-width=".2"><path d="M11.25 25.25l-.25-1.25.5-.25 1.5.25 0 .25-.5.25-1-.25 0 1" fill="#1D2C11"/><path d="M11.25 25.25l0-1.25.5-.25 1 .25 0 .25-.5 0-.75.25 0 1" fill="#1F421E"/><path d="M10 27.25l.5 1 2.75 0 .5-1-.75-1.5-.5-.75-2 .25-.75 1.25Z" fill="#9F5A28"/><path d="M9.75 27.25l.5.75.5.25 2.75 0 0-1.75-.25-.75-1-.75-1.5 0-.5.75-.25 0Z" fill="#F59E69"/><path d="M10 27.25l.25 1 3 0 .25-1.25-.5-1.75-1-.25-1 0-1 .75Z" fill="#F57D1D"/><path d="M11 25.25l1 0 .75.25.25.5-.25-.25" fill="#C88D2F"/><path d="M11 26l-.25.5.5 0-.25-.5-.25.5m1.75-.5-.25.5.5 0-.25-.5-.25.5M11.5 27.25l.5 0-.25-.5-.25.5.25 0M10.75 27.5l.25.25.25-.25.25.5.25-.25.25.25.25-.25.25.25 0-.25.5 0-.25-.25M11.25 25.5l.25.5m.5 0 .25-.5" fill="#F57D1D" stroke="#000"/></g></svg>