<svg xmlns="http://www.w3.org/2000/svg" width="16" height="16"><path d="M7.5 9.25l.5 1.25-.125 2 .625 0 0-2-.25-.75.25-.75.125-.375-.375 0-.25.75-.375-.375" fill="#362A1A"/><path d="M8 12.5l0-1.75-.25-1.25-1-.25-.5-.25-.25-.5 0-.25-.25-.25.75-.25.5 0 .5.25.25.5 0 .5.25.5.25-.75 0-.5.25-.25.5-.25.75 0 .5-.25-.25.5 0 .5-.75.25-.75.125-.25.875.25 1.25 0 1.5" fill="#0F2B0D"/><path d="M6.125 8.125l0 .25.25.375.5.375.75.125-.375-.5-.625-.375.625.25.5.5-.125-.125 0-.375-.25-.5-.625-.25-.5.125M8.375 8.625l.625-.375.625-.125.125-.125 0 .125-.125.125-.625.125-.5.25 0 .125.125 0 .5-.125.75-.25 0-.375.125-.25-.25.125-.625 0-.375.125-.375.25" fill="#24682A"/><path d="M6.125 8.125l0 .25.25.375.5.375.75.125-.75-.25-.625-.5M8.375 8.25l0 .375.093-.06M8.5 8.625l0 .125.125 0 .5-.125-.533.067" fill="#20471C"/><path d="M6.5 8l.25 0 .5.25M9 8l.152-.064h.598" fill="#588642"/></svg>