<svg xmlns="http://www.w3.org/2000/svg" width="16" height="16"><rect width="16" height="16" fill="#0F0E14"/><path d="M1.75 5.625h.125M7.875 2.5h0M5 9.125l1.875-1.625 3.875-.125m-3.875.125 1.625 1.625M11.875 1.625l2.125.625-.125 3.125M4.5 6.75h0M6.25 3.75h0M1.25 9.875h0M7.25 15.25h0M10 13.375l1-2 3.375.75-1.875 1.75-2.5-.5M7 11.625h0M13.75 9.125h0M.875 2l1.375 1 1-1.75 1.75 1M3.875 11.625l-1.75 2.75m-.375-2.25 2.375 1.5M8.875 5.125h0M11.875 4.5h0" stroke="#B3A89B" stroke-linejoin="round" stroke-linecap="round" fill="none" stroke-width=".7"/></svg>