<svg xmlns="http://www.w3.org/2000/svg" width="64" height="64"><rect width="64" height="64" fill="#0F0E14"/><g fill="none" stroke-linecap="round" stroke-linejoin="round" stroke-width="1.5" stroke="#FFE0C2"><path d="M7 8h0M16 6l-5-2-8 1M4 22l4-6 4 1 3-3-2-4M21 8h0M11 26h0M5 26h0M3 15h0M20 19h0M47 11l-3 6m-1-4 5 2m13-1-2-4M43 5h0M52 20h0M37 14h0M39 5h0M52 6h0M58 2h0M54 14h0M27 5h0M30 13h0M50 59l1-15 6-5 3 6-9-1M58 57h0M46 51h0M49 37h0M32 59h0M58 30v-1M39 47h0M43 57h0M44 47l-6 4 3 2-5 3M4 58l5-10-1-5 5-2-4 7 4 4 3-1 4-5-5-2-2-3m2 3 4-2M13 58h0M26 50h0M20 62h0M6 62h0M3 45h0M4 33h0M13 35h0"/><path d="M16 37h0M25 20h0M47 31h0M57 36h0M38 63h0M54 60h0M56 50h0M4 38h0M3 10H3M22 3h0M32 9h0M35 2h0M39 24h0M47 22h0M49 6h0M59 22h0" stroke-opacity=".8"/></g></svg>