<svg xmlns="http://www.w3.org/2000/svg" width="64" height="64"><defs><linearGradient id="sky" y1="100%" x2="0%"><stop offset=".1" stop-color="#A9D2E0"/><stop offset=".9" stop-color="#93ECF7"/></linearGradient></defs><rect width="64" height="64" fill="url(#sky)"/><g class="sBgTrees fBgLight" stroke-linejoin="round" stroke-width=".8" stroke="#26432F" fill="#56B75D"><path class="sFarTrees fFarTrees" d="M-4 24l5-5 2 5 3-1 3 2 4-2 2 2 3-3 3 3 4-2 6 2 3-3 1 2 22 0V33H-1" fill="#699C6B" stroke="#436253"/><path d="M-1 19l2 7 2-4 4 6 5-7 4 8 4-6 4 6 4-6 3 5 5-8 4 5 3-8 6 9 2-2 3 3 4-7 4 6 3-4V33H-1"/><path d="M0 30l2-13 3 13 4-12 5 12 3-6 4 6 3-10 4 10 2-8 6 9 4-14 4 14 3-14 5 11 3-7 3 10 3-12 4 10V33"/></g><path class="fBgDark" d="M0 30H66v6H-4" fill="#216E3B"/><rect class="fBgLight" width="64" height="28" y="36" fill="#56B75D" x="0"/><path d="M-4 41l12 0-2-2 28-1.5 2 2.5 17-3 5 3 7.75-1.25V58l-5.75 2-5-2-19 3-4-3-15 0-1 2-2-2-9.5.5-2.5 1.5-4.5-1" fill="#FFE4B6"/><path class="fBgLight" d="M3 49l6-1 3 2-7 1M22 46l2 1-1 1.5M44 50l3-2 8 0 1 3-4 1" fill="#56B75D"/><path class="fBgDark" d="M.75 65l8.25-4 4 4 3-3 14-2 .75 4.75 22.25-3.75 3 2 9-3V76.25" fill="#216E3B"/></svg>