<svg xmlns="http://www.w3.org/2000/svg" width="64" height="64"><defs><linearGradient id="sky" y1="100%" x2="0%"><stop offset=".1" stop-color="#A9D2E0"/><stop offset=".9" stop-color="#93ECF7"/></linearGradient></defs><rect width="64" height="64" x="0" y="0" fill="url(#sky)"/><path id="grass" d="M0 30H66v6H-4" fill="#216E3B"/><rect width="64" height="28" y="36" fill="#56B75D" x="0"/><path d="M-4 41l12 0-2-2 28-1.5 2 2.5 17-3 5 3 7.75-1.25V58l-5.75 2-5-2-19 3-4-3-15 0-1 2-2-2-9.5.5-2.5 1.5-4.5-1" fill="#FFE4B6"/><path d="M3 49l6-1 3 2-7 1M22 46l2 1-1 1.5M44 50l3-2 8 0 1 3-4 1" fill="#56B75D"/><path d="M.75 65l8.25-4 4 4 3-3 14-2 .75 4.75 22.25-3.75 3 2 9-3V76.25" fill="#216E3B"/></svg>