<svg xmlns="http://www.w3.org/2000/svg" width="16" height="16"><rect width="17" height="17" fill="#A58C48" x="-1" y="-1"/><path d="M1.25 6.125l.125-.25.875.5-.125.25M6 3.625l.5-.625.25.25-.5.5M8.75 12l0 1 .375 0 0-1M1.875 12.875l.25.125-.5.75-.25-.125" fill="#9C4575"/><path d="M8.125 3.875l.25.875.25-.125-.25-.875M2.375 9.625l-.125.625.125.125.125-.625M12.875 2l-.75-.625-.125.25.75.625M2.75 2.75l0 .625.25 0 0-.625M10.25 10l-.375.25.75 1 .25-.25" fill="#C47336"/><path d="M9.75 5.875l-.125 1 .375 0 .125-1M2.125 7.875l1 .125-.125.375-1-.125M9.25 1.375l-.375.5.375.25.375-.5M2.125 1l-.375.5.375.25.625-1M13.125 12.75l-.25 1.125.375 0 .25-1.125" fill="#377326"/><path d="M6.75 10.75l-.375.75.25.125.375-.75M4.25 12.5l-.125.375 1 .125.125-.375M4.625 1.375l-.375.625.25.125.375-.75M11.875 7.875l-.375.75.375.25.375-.75M11 4.375l-.875.875.25.25.875-.75" fill="#3D4776"/><path d="M2.5 4.75l-.125.25.875.5.125-.25M14.375 2.75l-.5 1 .375.125.375-1M7.875 14.25l-.125.375.875.375.125-.375" fill="#EA4649"/><path d="M.875 3l-.125.875.375 0 0-.875M5.625 4.625l-.25.375.875.5.25-.25M11 10.125l-.125.375 1 .25 0-.375M10.25 3l.375.5-.75.625-.375-.375M6.375.375l0 .5 1.5 0 0-.375M.75 9.375l.375 0 .25 1.125-.375 0M3.625 14.5l-.125.5 1.25.125.125-.375" fill="#553717"/></svg>