<svg xmlns="http://www.w3.org/2000/svg" width="16" height="16"><path d="M1.25 1l-.25-.25-.25.5-.5.25.5.5-.5.5.5.25 0 .5-.75.75 1.25.5-.5.25.75.25-.75.5.75.5 0 .25-1.25.25 1.25 1.25-.75.75.75.75-.25.5-.5.25 0 .5.75.5-.75.5.5.75-.5 0 .25.5.75.25.25.25-1.25.25.5.75 0 .25.5.25-.5.75.5 0 1.25-.75.75 1 1.25-1 .5 1 .5-1 1.25 1 .25-.5.5.5.75-1 .75 1 .75-.5.25.5 1.25-.5.75.5.25-.5 0 .5 1-.5.25.5.75-.75 1 .75-.5-1.5.5-.25-.5-1 .5-.5-.75-.5.75-.5-.75-.75.25-.5.75-.75-.75-.75.5-1-.25 0 .25-.75-.5-.5-.25-1 .75-.5-.75-1 .25-.5-.5-.5 1-.5-.75-.5 0-.75-.5.25.25-.75-2.25.25-.5-.25-.25.5-1.25-1-.75.5-1-.75-.75 1-.5-.75-.5.25-1-.25-.75.75-1-.75-.75 1-1-1-.25.25-1-.25" fill="#301111"/><path d="M1.5 2.5l-1-1 1.5 0-.5-1 2 1 1-1 .5 1 1.5-1 1.5 1.5 1-2 .5 1.5 1-1 1 1.5.5-1 1 1.5 2-1-1 1.5 1 1.5-1 0 .5 1-1 .5 1.5 1.5-1 0 1 1-1 .5 1 1-1 1.5 1-.5-1 2 1 .5-1 1 .5.5-1.5-.5-.5 1-1.5-1-1.5 1-1-1.5-1.5 1.5-1.5-1.5-1.5 1.5-1-1-1.5 1 .5-1-1-1 1.5 0-1.5-2 1-.5-1-1 1.5 0-1.5-1.5 1.5-.5-1.5-1 1.5-1-1.5-.5 1.5-1-1.5-1" fill="#F7768E"/><path d="M1.5 1l-.5 2 1 2-.5 1.5 1.5 1.5-1.5 1.5 1 1-1 1.5 1.5 1-1 1 1 0 .5.5 1-1 1 1 1.5-.5 1 1 1.5-1 1 1 1-1 1 1 1-1 1.5.5-1.5-1 1.5-.5-1-.5 1-1-1.5-.5 1.5-.5-1-1 1-.5-1-.5 1-2-1-1 .5-3 .5-.5-1.5 0-3.5-.5-1 1-.5-1.5-1 .5-1.5-.5-1.5 1-2-1" fill="#FAA0A0"/><path d="M2 1.5l-1-.5 0 1-.5.5 1 .5-1.5 1 3 .5-2 0 1 1-1 0 1.5 1-2 0 2 1-1.5 1 1.5.5-1.5 1.5 1.5 0-1 1 1.5.5-2 .5 2.5.5-2 1.5 2.5-.5-.5 1 1.5-1 .5 1.5.5-1.5 1 1.5.5-1 .5 1 1-1.5.5 1.5.5-1.5.5 1.5 2.5-1.5 0 1.5.5-1 .5 1 .5-1 1 1-1-1.5 1 0-1-1 1-.5-1.5-.5 1.5-.5-1.5-1 2-1-1.5-.5 1-1-1 0 1-1-1-.5.5-.5-.5-.5 1-.5-1-1 .5-.5-1-.5 1.5-.5-1.5-.5.5-1-1.5 0-1 .5-1-.5-1 1-1-1-.5 1.5-1-2-1 1-.5-1-1 1.5-1-1-.5 1-1-1.5" fill="#FF6961"/><path d="M1.25-.25M-111 0l12.5-.5.25 12.5-12 .5Z" fill="#FFC1C2" stroke-opacity=".8" stroke-linejoin="round" stroke-width=".2" stroke="#301111"/><path d="M1.75 2.25l-.25-.5 1 .25 0-.5.75.75 1-.25 1 .25.75-.75.25.75 1-.75.75 1.5 1.5-1 .75.5.75-.75 1 1.25.25-.75.5.75 1.25-.5-.5 1 .5.25-.5.5 1 .5-.5.75.5.75-.75.5 1 .25-1 1 .75.5-1 .75 1 .5-1.25.75 1.25.75-1 .5 1 .75-.75.25.75.5-.5.5 0 1-.75-.75-1 .75-1-.75-.5.5-.5-.25-.75.5-1-.75-.25.75-.5-.75-.75.75-1.25-.75-.25.5-.25-.5-1.25.75-.75-.75-.5.25-.25-.5.75-.25-.75-1 .75-.25-1-.75.75-1-1-.25.75-.75-.5-1 .75-.75-.75-1 .75-.75-.75-.25.5-.25-.75-.75 1-.25-1.5-.75.75-1-.75-.25Z" fill="#FFC1C2" stroke-opacity=".8" stroke-linejoin="round" stroke-width=".2" stroke="#301111"/></svg>