<svg xmlns="http://www.w3.org/2000/svg" width="16" height="16"><path d="M.75 1.75l0 1-.5 0 .5.75-.5 10.75.5.75 1.5.25.5-.5 11 .25.75.75.25-.5.75.5.25-1.5.25-.25 0-.25-.75-.25 0-10.75-2-1.5-9.75 0-.75-.5-.25.5-.5-.5-.25.5-.75 0"/><path d="M1 2l-.5 12.5 13 .5 1.5-.5 0-11.5-1.5-1" fill="#FFB347"/><path d="M1.5 2l-.5 1 0 11 .5.5 12.5 0 1-.5-.5-11-1.5-1.5-10 .5" fill="#DAC476"/><path d="M2.5 1.5l-.5-.5 0 1-1-.5 0 1.5-.5 0 .5.5 0 10-.5.5 0 .5.5-.5 0 1 1-1.5 0 1.5 1.5-1 10.5.5.5 1 0-1 1 1 0-1.5.5 0-1-.5-1-10.5.5 0-1-.5 1-.5-1.5.5 0-1-.5.5-.5-.5" fill="#FDF85F"/><path d="M1.5 2.5l0-1 1 .5.5-1 1 1 7.5 0 2-.5-1 1 1.5 0-.5.5 1 .5 0 10 1 1-1-.5 0 1-1-1-11 0-1 1-.5-1-.5.5.5-1.5 0-10.5Z" fill="#FAC898" stroke="#332E15" stroke-width=".2" stroke-opacity=".8" stroke-linejoin="round"/></svg>