<svg xmlns="http://www.w3.org/2000/svg" width="16" height="16"><path d="M7.375 12l.25-1.375.75-.75.25-.5-1-.25-.375-.125 1-.125.625.25.125.25-.375.75-.625 1" fill="#362A1A"/><path d="M7.375 12l.375-1.375.5-.625.375-.625-.125-.125-.625-.125-.375.125 0 .25-.125.25-.375.25-.375.125-.125.125-.125-.25 0-.25.125-.375.375-.375.375-.125.125.125.5-.125.75.125.375.25 0 .125-.5.875-.375.5-.25 1.25" fill="#0F2B0D"/><path d="M6.5 10.125l0-.375.125-.375.5-.375.125.125-.375.375.5-.375 0 .375-.125.25-.375.25" fill="#24682A"/><path d="M6.5 10l0 .125.375-.125.234-.157-.484.157" fill="#20471C"/><path d="M6.75 9.375l.25-.25.125 0" fill="#588642"/></svg>