<svg xmlns="http://www.w3.org/2000/svg" width="16" height="16"><path d="M2.875 1.875l-1.75 3.375 0 6.5 1.375 3.5 11.25-.25.625-8.375-.875-3.5-5.5-1.125"/><path d="M3.625 2.875l-1.25.375-.875.875-.5 3.5.375 5.625 1.375 1.75 10.5-.375.5-.375.5-1-.25-6.625-1-3.25-3.125-.625" fill="#7A5B45"/><path d="M2 2l-1 4.625 1.25 8.25 10.625.25 1.625-4.125-.5-6.5-2.5-2-1-.375" fill="#5D3221"/><path d="M2.375 2.375l-.875 3.25.25 8.625 10.75.75 1.75-2.5-.375-8.875-4.625-1.375" fill="#DAB1A3"/><path d="M7 4.75l-3.5 3 2 4 1.25-.5-1.125-2 6-.25 0-.875-.5-.125-5.375 0 1.875-2.25" fill="#272727"/><path d="M11.5 8l-6.125 0 2.25-2.5-.875-.75-3.375 3.625 2.375 3.5.625-.125.375-.625-1.5-2 6.375 0" fill="#1C1E25"/><path d="M11.5 8.125l-6.125-.125 2.25-2.375-.75-.875-3.5 3.375 2.25 3.75 1.125-.5-1.25-2.25 6 0" fill="#292836"/></svg>