<svg xmlns="http://www.w3.org/2000/svg" width="16" height="16"><path class="ftreeDark" d="M.375.625l.375 6.25-.75 7.375.25.875.75.625 6.625-.75h5.25l1.375.5.5.25.25 0 .625-.625.125-.5 0-.5-.5-4.375v-1l.625-7.625-.375-.625-.625-.5-6.375.5-6.125.125-1.125-.25" fill="#0F2B0D"/><path class="ftreeShadow" d="M1.625.5l-1 .375-.125 1.875.125 2.875-.5 9.125.75.625.5.125 7.625-.375 6 .375.25-.125 0-.25.125-.375.25 0 .125-13.625-.125-.375-.5-.125-1.75-.625-7.125.75" fill="#20471C"/><path d="M.75 1.5l-.375 12.875.625.875 13.625-.125.75-1.25.125-3.25 0-8-.125-1.375-.25-.5-1.375-.375-5.125 0-6.25.375-1.25.25" fill="#FFE1CC"/></svg>